<mxfile host="Electron" modified="2024-03-03T17:14:46.944Z" agent="Mozilla/5.0 (Windows NT 10.0; Win64; x64) AppleWebKit/537.36 (KHTML, like Gecko) draw.io/23.1.5 Chrome/120.0.6099.109 Electron/28.1.0 Safari/537.36" etag="KJuxy2Ewz5KlyRPu8XIw" version="23.1.5" type="device">
  <diagram name="Page-1" id="OFlHykyYntzQRcv9Ikpt">
    <mxGraphModel dx="2026" dy="1171" grid="1" gridSize="10" guides="1" tooltips="1" connect="1" arrows="1" fold="1" page="1" pageScale="1" pageWidth="850" pageHeight="1100" math="0" shadow="0">
      <root>
        <mxCell id="0" />
        <mxCell id="1" parent="0" />
        <mxCell id="BrVV5RjX4kQSXDsciUZA-1" value="" style="shape=image;verticalLabelPosition=bottom;labelBackgroundColor=default;verticalAlign=top;aspect=fixed;imageAspect=0;image=https://innovationtoronto.com/wp-content/uploads/2016/03/cyber-shuffling.png;" vertex="1" parent="1">
          <mxGeometry x="100" y="40" width="993" height="478" as="geometry" />
        </mxCell>
        <mxCell id="BrVV5RjX4kQSXDsciUZA-4" value="" style="shape=image;verticalLabelPosition=bottom;labelBackgroundColor=default;verticalAlign=top;aspect=fixed;imageAspect=0;image=https://techpiton.com/wp-content/uploads/2019/10/Honeypot-Structure.png;" vertex="1" parent="1">
          <mxGeometry x="251.5" y="550" width="690" height="428.03" as="geometry" />
        </mxCell>
      </root>
    </mxGraphModel>
  </diagram>
</mxfile>
